<?xml version="1.0" standalone="no"?>
<!DOCTYPE svg PUBLIC "-//W3C//DTD SVG 20010904//EN"
 "http://www.w3.org/TR/2001/REC-SVG-20010904/DTD/svg10.dtd">
<svg version="1.0" xmlns="http://www.w3.org/2000/svg"
 width="3240.000000pt" height="3240.000000pt" viewBox="0 0 3240.000000 3240.000000"
 preserveAspectRatio="xMidYMid meet">
<metadata>
Created by potrace 1.14, written by Peter Selinger 2001-2017
</metadata>
<g transform="translate(0.000000,3240.000000) scale(0.100000,-0.100000)"
fill="#000000" stroke="none">
<path d="M11409 32396 c-2 -2 -42 -6 -89 -10 -47 -4 -101 -9 -120 -11 -19 -2
-57 -7 -85 -10 -59 -7 -100 -14 -230 -36 -171 -29 -466 -98 -620 -146 -98 -30
-360 -116 -385 -126 -14 -5 -29 -11 -35 -12 -14 -3 -261 -103 -312 -126 -24
-10 -45 -19 -48 -19 -2 0 -48 -20 -101 -45 -53 -25 -98 -45 -100 -45 -9 0
-419 -207 -519 -262 -163 -90 -210 -117 -290 -165 -290 -174 -288 -173 -444
-275 -73 -48 -137 -88 -141 -88 -5 0 -10 -3 -12 -7 -1 -5 -37 -30 -78 -58
-131 -87 -621 -443 -640 -465 -3 -3 -32 -25 -65 -50 -119 -88 -643 -517 -696
-569 -9 -9 -42 -38 -75 -66 -350 -297 -847 -786 -1114 -1095 -12 -14 -31 -36
-43 -50 -12 -14 -47 -55 -78 -90 -30 -36 -106 -128 -168 -205 -62 -77 -118
-147 -125 -156 -20 -24 -219 -291 -236 -315 -52 -76 -161 -231 -167 -239 -7
-8 -123 -187 -218 -335 -90 -139 -218 -358 -342 -585 -90 -164 -331 -655 -381
-775 -8 -19 -24 -57 -37 -85 -190 -422 -407 -1047 -553 -1590 -50 -185 -83
-312 -88 -345 -3 -14 -7 -33 -10 -42 -5 -15 -9 -35 -18 -83 -2 -11 -9 -38 -14
-60 -9 -35 -83 -400 -96 -478 -3 -15 -10 -53 -15 -85 -6 -31 -13 -73 -16 -92
-3 -19 -8 -42 -10 -50 -2 -8 -7 -40 -10 -70 -4 -30 -8 -57 -10 -60 -2 -3 -6
-34 -10 -70 -3 -35 -8 -67 -10 -70 -1 -3 -6 -30 -9 -61 -4 -31 -8 -66 -10 -76
-3 -11 -7 -44 -11 -74 -3 -30 -8 -65 -10 -79 -2 -14 -7 -52 -10 -85 -3 -33 -7
-67 -10 -75 -2 -8 -6 -51 -10 -95 -4 -44 -8 -93 -10 -110 -2 -16 -6 -55 -9
-85 -14 -149 -18 -198 -21 -230 -2 -19 -7 -87 -10 -150 -4 -63 -8 -142 -10
-175 -26 -414 -26 -1150 0 -1565 8 -124 16 -237 20 -270 3 -19 7 -75 10 -125
3 -49 8 -97 10 -105 2 -8 7 -46 10 -85 3 -38 7 -81 10 -95 2 -14 6 -50 9 -80
3 -30 7 -71 10 -90 3 -19 14 -96 25 -170 11 -74 23 -153 26 -175 2 -22 7 -52
10 -67 3 -16 7 -40 10 -55 20 -112 25 -142 30 -168 2 -16 7 -41 10 -55 3 -14
8 -41 11 -60 3 -19 15 -71 25 -115 10 -45 20 -92 23 -105 12 -63 49 -219 85
-360 251 -978 636 -1845 1137 -2565 35 -49 67 -94 72 -100 4 -5 28 -37 52 -70
41 -56 188 -244 200 -255 3 -3 34 -39 70 -80 36 -41 79 -90 95 -109 17 -19
104 -109 195 -200 318 -320 656 -587 1035 -818 311 -190 775 -406 1110 -518
86 -29 303 -95 358 -110 31 -8 83 -22 114 -30 31 -9 64 -17 72 -19 9 -1 27 -6
41 -9 51 -12 206 -46 235 -51 17 -3 41 -8 55 -11 77 -16 310 -52 445 -70 140
-18 183 -22 293 -30 42 -4 100 -8 127 -11 338 -30 1087 -19 1495 21 25 3 71 7
103 10 31 3 81 7 110 10 28 3 75 7 102 10 52 4 122 12 188 20 20 3 54 7 75 10
186 23 427 60 522 80 14 3 39 8 55 10 58 10 270 56 305 65 19 6 53 14 75 19
367 80 1094 314 1810 583 355 134 352 133 460 172 55 21 120 46 145 56 49 20
192 74 200 75 3 0 37 13 75 27 368 139 1081 382 1179 402 10 2 84 24 111 33
36 11 558 142 586 147 19 3 66 12 104 20 39 8 84 17 100 21 39 7 327 52 383
60 23 3 59 7 80 10 20 3 66 7 102 11 36 3 81 7 100 9 216 22 702 22 905 1 17
-2 64 -7 105 -10 41 -4 82 -9 90 -11 8 -2 40 -7 70 -10 30 -3 78 -10 105 -15
28 -5 68 -12 90 -15 22 -3 47 -7 55 -10 8 -2 26 -6 40 -9 225 -39 600 -147
835 -241 583 -232 919 -588 1050 -1110 52 -211 65 -498 30 -700 -70 -402 -220
-734 -497 -1096 -106 -140 -173 -215 -347 -389 -376 -374 -779 -679 -1511
-1142 -234 -148 -626 -392 -663 -413 -136 -78 -1204 -789 -1237 -825 -3 -3
-30 -22 -60 -42 -82 -56 -91 -63 -265 -192 -158 -118 -412 -316 -470 -367 -16
-14 -82 -71 -145 -125 -201 -173 -286 -252 -474 -440 -437 -438 -801 -918
-1046 -1379 -101 -190 -248 -581 -276 -735 -3 -14 -8 -34 -11 -45 -4 -11 -8
-24 -9 -30 -7 -34 -14 -63 -19 -85 -6 -29 -42 -231 -49 -275 -2 -16 -7 -48
-11 -70 -3 -22 -8 -62 -10 -90 -3 -27 -7 -68 -10 -90 -25 -209 -25 -719 0
-935 2 -19 7 -57 10 -85 2 -27 7 -66 10 -85 2 -19 7 -55 10 -80 8 -57 10 -72
34 -200 28 -145 31 -163 37 -182 3 -10 7 -30 10 -44 8 -42 73 -275 94 -334
135 -387 240 -604 435 -900 252 -383 562 -710 936 -989 132 -100 333 -230 454
-296 39 -21 77 -42 85 -46 49 -27 259 -123 335 -154 183 -75 542 -183 664
-201 20 -3 43 -7 51 -9 17 -5 135 -23 195 -31 22 -2 49 -6 60 -9 123 -26 824
-27 960 -1 11 2 54 7 95 10 41 4 89 9 105 11 17 3 66 9 110 15 44 6 94 13 110
16 17 2 55 9 85 14 30 5 73 12 95 16 22 3 85 14 140 25 55 11 109 22 120 23
11 2 43 9 70 16 28 6 61 14 75 16 198 37 845 227 1040 304 59 24 244 94 250
96 7 1 40 15 195 80 429 182 853 412 1205 654 233 161 287 198 604 419 170
119 341 238 380 265 59 42 535 382 601 430 11 8 107 78 213 156 896 654 1844
1411 2417 1930 28 25 93 83 145 130 484 435 1032 979 1445 1436 82 90 163 180
178 198 55 64 76 87 132 151 34 39 106 124 161 190 54 66 101 122 104 125 3 3
24 27 45 55 22 27 45 55 50 61 6 7 20 25 32 40 13 16 55 70 94 119 372 470
768 1045 984 1430 174 311 378 714 469 930 26 61 51 119 56 130 101 221 313
839 375 1095 75 309 69 283 94 405 32 158 56 289 66 365 3 25 8 52 10 60 2 8
6 38 10 65 3 28 8 68 10 90 8 60 13 103 20 180 4 39 8 86 11 105 31 272 20
967 -21 1220 -2 14 -7 50 -10 80 -15 144 -67 427 -116 630 -238 1001 -708
1945 -1394 2800 -73 91 -141 174 -151 185 -11 11 -37 41 -58 65 -205 234 -542
570 -727 725 -13 11 -67 56 -119 100 -116 98 -191 157 -335 263 -60 45 -115
86 -122 91 -6 6 -85 59 -175 119 -501 336 -964 568 -1490 748 -108 37 -304 97
-358 110 -8 2 -53 13 -100 25 -173 43 -340 79 -470 99 -36 6 -77 13 -92 15
-54 9 -84 14 -133 20 -27 3 -61 8 -75 10 -36 6 -104 13 -195 20 -44 4 -93 8
-110 11 -80 10 -378 19 -625 18 -245 0 -347 -3 -605 -19 -102 -6 -276 -21
-340 -30 -16 -2 -61 -7 -100 -11 -38 -3 -79 -8 -90 -9 -11 -2 -45 -6 -75 -10
-58 -6 -188 -24 -230 -30 -14 -2 -47 -7 -75 -11 -27 -3 -59 -8 -70 -10 -11 -3
-40 -7 -65 -10 -25 -3 -52 -7 -60 -9 -8 -2 -37 -7 -65 -11 -27 -3 -59 -8 -70
-10 -52 -10 -134 -24 -170 -29 -22 -4 -47 -8 -55 -10 -8 -3 -33 -7 -55 -10
-38 -6 -220 -40 -370 -70 -38 -8 -86 -17 -105 -20 -19 -3 -53 -10 -75 -15 -51
-12 -272 -58 -305 -64 -14 -2 -45 -9 -70 -15 -25 -5 -60 -13 -79 -16 -19 -3
-37 -8 -40 -10 -4 -2 -26 -6 -51 -10 -25 -4 -47 -8 -51 -10 -3 -2 -21 -7 -40
-10 -45 -8 -534 -113 -579 -125 -19 -5 -53 -12 -75 -16 -22 -3 -43 -8 -46 -10
-4 -2 -24 -6 -45 -10 -22 -3 -55 -9 -74 -14 -19 -5 -114 -25 -210 -45 -96 -20
-184 -38 -195 -41 -32 -6 -66 -13 -145 -29 -41 -8 -86 -17 -100 -20 -14 -3
-37 -7 -51 -10 -14 -3 -102 -21 -195 -41 -93 -19 -180 -38 -194 -40 -36 -7
-253 -52 -330 -69 -36 -8 -76 -17 -90 -19 -14 -2 -104 -20 -200 -40 -96 -19
-186 -37 -200 -40 -37 -7 -171 -34 -200 -40 -22 -4 -58 -11 -165 -31 -43 -8
-305 -55 -335 -60 -39 -6 -280 -45 -325 -51 -22 -4 -47 -8 -55 -9 -8 -1 -40
-6 -70 -10 -30 -3 -66 -8 -80 -10 -14 -2 -45 -6 -70 -10 -25 -3 -56 -7 -70
-10 -14 -2 -56 -7 -93 -10 -37 -4 -76 -8 -85 -10 -9 -1 -48 -6 -87 -9 -38 -4
-86 -9 -105 -11 -19 -2 -80 -7 -135 -11 -55 -4 -118 -8 -140 -9 -152 -11 -372
-18 -560 -18 -204 0 -501 10 -544 18 -10 2 -58 6 -106 10 -49 3 -91 8 -94 9
-3 2 -37 7 -74 11 -37 3 -76 8 -86 10 -22 4 -82 14 -131 21 -19 3 -43 7 -53
10 -10 3 -30 7 -45 9 -50 8 -258 57 -342 81 -185 54 -411 140 -520 196 -30 15
-57 28 -61 28 -4 0 -55 28 -115 61 -163 92 -292 180 -443 304 -124 100 -396
405 -453 506 -12 21 -25 39 -30 39 -4 0 -8 4 -8 8 0 5 -23 47 -51 93 -59 98
-136 247 -173 339 -15 36 -33 79 -41 95 -7 17 -31 86 -54 155 -36 112 -48 152
-82 280 -14 52 -29 121 -34 160 -3 19 -10 51 -15 70 -9 35 -38 221 -46 295 -2
22 -6 60 -9 85 -27 246 -27 804 0 980 2 14 6 48 10 75 11 95 14 117 19 143 3
15 8 44 11 66 3 21 14 82 25 135 11 54 22 106 24 117 2 10 14 57 26 104 12 47
23 90 24 95 37 164 198 605 287 789 21 45 39 86 39 93 0 6 3 13 8 15 4 2 31
53 61 113 245 493 664 1082 1121 1569 85 92 389 395 471 471 193 179 391 351
564 490 55 44 102 83 105 86 3 3 75 59 160 124 291 222 491 408 648 603 19 22
41 50 50 60 10 11 49 63 87 116 254 349 434 735 539 1153 31 122 39 161 51
238 2 11 8 49 14 85 6 36 13 99 16 140 4 41 8 86 11 100 5 29 5 425 0 486 -36
437 -157 866 -357 1267 -90 179 -251 434 -364 572 -22 27 -47 58 -55 69 -78
101 -289 315 -410 416 -36 30 -67 57 -70 60 -43 45 -321 236 -455 312 -220
125 -554 263 -790 326 -22 6 -58 15 -80 21 -35 10 -142 35 -200 47 -69 14
-233 40 -315 49 -30 4 -75 9 -100 11 -50 6 -636 15 -641 10z"/>
<path d="M24908 29655 c-2 -1 -55 -5 -118 -9 -63 -4 -131 -9 -150 -11 -19 -2
-57 -7 -85 -10 -27 -4 -57 -8 -65 -10 -8 -2 -37 -6 -64 -10 -27 -3 -52 -8 -55
-9 -3 -2 -28 -7 -56 -10 -27 -4 -58 -9 -67 -12 -9 -3 -25 -6 -35 -8 -199 -39
-485 -130 -718 -229 -151 -64 -420 -201 -483 -245 -16 -12 -33 -22 -37 -22 -4
0 -30 -16 -56 -35 -27 -19 -51 -35 -54 -35 -3 0 -54 -35 -113 -77 -94 -67
-133 -97 -217 -164 -234 -189 -488 -452 -671 -696 -85 -112 -244 -346 -244
-358 0 -2 -21 -39 -46 -82 -55 -93 -167 -322 -220 -448 -38 -93 -120 -321
-129 -358 -3 -12 -25 -98 -49 -192 -24 -93 -47 -186 -50 -205 -3 -19 -8 -46
-11 -60 -3 -14 -8 -45 -11 -70 -3 -25 -8 -52 -9 -61 -2 -9 -6 -38 -9 -65 -4
-27 -9 -65 -11 -84 -26 -202 -26 -656 0 -880 14 -115 19 -145 42 -285 3 -16
14 -70 25 -120 10 -49 21 -101 24 -114 3 -14 7 -28 9 -31 2 -4 7 -22 10 -40 9
-52 128 -406 165 -490 18 -41 39 -91 48 -110 38 -88 155 -316 212 -411 408
-681 987 -1216 1685 -1558 449 -220 902 -348 1403 -396 152 -14 468 -20 592
-11 25 2 86 7 135 10 50 4 101 9 115 11 14 3 48 7 75 11 28 3 59 8 70 10 10 2
37 6 60 10 395 58 922 246 1304 466 95 55 315 194 344 218 7 6 55 42 107 82
624 469 1116 1153 1368 1904 50 147 127 435 137 509 2 21 7 45 9 54 6 21 16
83 31 196 4 33 9 69 11 80 25 131 24 784 -1 910 -2 11 -6 38 -9 60 -16 128
-32 214 -70 382 -91 401 -244 782 -455 1136 -42 71 -80 136 -86 145 -40 68
-242 336 -329 437 -77 89 -322 335 -405 406 -35 29 -69 59 -75 64 -67 62 -295
226 -449 322 -151 94 -560 303 -593 303 -3 0 -20 6 -37 14 -48 22 -190 72
-302 106 -95 30 -111 35 -152 44 -10 2 -45 11 -78 20 -64 16 -244 53 -298 60
-18 3 -66 9 -107 15 -104 14 -163 21 -245 27 -76 5 -452 13 -457 9z"/>
</g>
</svg>
